<svg xmlns="http://www.w3.org/2000/svg" xmlns:xlink="http://www.w3.org/1999/xlink" data-name="Layer 1" viewBox="0 0 2000 1600"><defs><radialGradient id="a" cx="-5770.65" cy="440.7" r="17.12" gradientTransform="matrix(.99 -.11 .11 .99 7264.49 -610.52)" gradientUnits="userSpaceOnUse"><stop offset="0" stop-color="#f069a7"/><stop offset=".24" stop-color="#f06eaa"/><stop offset=".55" stop-color="#f07eb3"/><stop offset=".89" stop-color="#f198c1"/><stop offset="1" stop-color="#f1a2c7"/></radialGradient><radialGradient id="b" cx="-5860.68" cy="414.03" r="17.12" xlink:href="#a"/><radialGradient id="c" cx="547.27" cy="1324.15" r="13.31" gradientTransform="rotate(23.88 1675.642 935.317)" xlink:href="#a"/><radialGradient id="d" cx="-1988.87" cy="967.29" r="16.25" gradientTransform="matrix(-.98 -.21 -.21 .98 -1327.45 -528.97)" xlink:href="#a"/></defs><path fill="#0e112a" d="M1825.87,1319.53H174.13a3.45,3.45,0,0,1,0-6.9H1825.87a3.45,3.45,0,1,1,0,6.9Z"/><path fill="#005196" d="M946.8,1039.23l-22.64-9.84v-5.46l22.64-9.8v6.43l-15.79,6,15.79,6.27Z"/><path fill="#005196" d="M948.89,1043.56l8.18-34.16h4.76l-8.27,34.16Z"/><path fill="#005196" d="M971.4,1010v12.14a9.5,9.5,0,0,1,11.27-2.77,6.51,6.51,0,0,1,2.65,2.07,7.48,7.48,0,0,1,1.21,2.79,24.85,24.85,0,0,1,.33,4.76v14h-6.33v-12.64a18.68,18.68,0,0,0-.36-4.78,3.13,3.13,0,0,0-1.28-1.61,4.05,4.05,0,0,0-2.28-.6,5.19,5.19,0,0,0-2.82.77,4.42,4.42,0,0,0-1.81,2.31,13.54,13.54,0,0,0-.58,4.56v12h-6.33v-33Z"/><path fill="#005196" d="M1004.25,1019.07v5h-4.32v9.64a24.69,24.69,0,0,0,.12,3.41,1.36,1.36,0,0,0,.56.8,1.81,1.81,0,0,0,1.08.31,8.28,8.28,0,0,0,2.54-.6l.54,4.91a12.59,12.59,0,0,1-5,1,8,8,0,0,1-3.09-.58,4.5,4.5,0,0,1-2-1.49,5.73,5.73,0,0,1-.89-2.46,29.81,29.81,0,0,1-.21-4.47v-10.42h-2.9v-5h2.9v-4.76l6.36-3.69v8.45Z"/><path fill="#005196" d="M1008.17,1019.07H1014v3.27a9.36,9.36,0,0,1,7.46-3.81,8,8,0,0,1,4,.94,7.26,7.26,0,0,1,2.78,2.87,11,11,0,0,1,3.4-2.87,8.35,8.35,0,0,1,3.9-.94,8.74,8.74,0,0,1,4.46,1.07,6.56,6.56,0,0,1,2.72,3.14,13.53,13.53,0,0,1,.66,5V1043H1037v-13.68c0-2.37-.22-3.9-.66-4.6a3,3,0,0,0-2.7-1.35,4.31,4.31,0,0,0-2.5.81,4.5,4.5,0,0,0-1.69,2.38,16.88,16.88,0,0,0-.52,4.94V1043h-6.33v-13.12a18.32,18.32,0,0,0-.34-4.5,2.8,2.8,0,0,0-1-1.51,3.29,3.29,0,0,0-1.92-.5,4.58,4.58,0,0,0-2.64.79,4.31,4.31,0,0,0-1.68,2.27,17,17,0,0,0-.5,4.94V1043h-6.34Z"/><path fill="#005196" d="M1049.68,1043v-33H1056v33Z"/><path fill="#005196" d="M1061.32,1039.26v-6.38l15.82-6.22-15.82-6.15v-6.33L1084,1024v5.41Z"/><path fill="#005196" d="M334,570.63l-22.65-9.85v-5.46l22.65-9.8V552l-15.8,6,15.8,6.26Z"/><path fill="#005196" d="M336.13,575l8.18-34.16h4.75L340.79,575Z"/><path fill="#005196" d="M352.15,550.46h5.9V554a8.88,8.88,0,0,1,3.11-2.94,8.7,8.7,0,0,1,4.35-1.12,9.1,9.1,0,0,1,7.07,3.27q2.91,3.25,2.91,9.1,0,6-2.93,9.31a9.11,9.11,0,0,1-7.09,3.33,8.13,8.13,0,0,1-3.6-.79,12.27,12.27,0,0,1-3.39-2.71v12.06h-6.33ZM358.41,562c0,2.69.54,4.67,1.6,6a4.92,4.92,0,0,0,3.9,1.93,4.57,4.57,0,0,0,3.67-1.78q1.47-1.77,1.47-5.8c0-2.5-.5-4.37-1.51-5.58a4.68,4.68,0,0,0-3.74-1.83,4.89,4.89,0,0,0-3.86,1.79A8,8,0,0,0,358.41,562Z"/><path fill="#005196" d="M386.82,541.36V553.5a9.5,9.5,0,0,1,11.27-2.77,6.51,6.51,0,0,1,2.65,2.07,7.72,7.72,0,0,1,1.21,2.79,24.85,24.85,0,0,1,.33,4.76v14H396V561.75a18.73,18.73,0,0,0-.36-4.78,3.2,3.2,0,0,0-1.27-1.61,4.11,4.11,0,0,0-2.29-.6,5.28,5.28,0,0,0-2.82.77,4.42,4.42,0,0,0-1.81,2.31,13.85,13.85,0,0,0-.58,4.56v12h-6.33v-33Z"/><path fill="#005196" d="M408.52,550.46h5.9V554a9,9,0,0,1,3.11-2.94,8.7,8.7,0,0,1,4.35-1.12,9.13,9.13,0,0,1,7.08,3.27q2.91,3.25,2.9,9.1,0,6-2.93,9.31a9.1,9.1,0,0,1-7.09,3.33,8.16,8.16,0,0,1-3.6-.79,12.27,12.27,0,0,1-3.39-2.71v12.06h-6.33ZM414.78,562c0,2.69.54,4.67,1.61,6a4.89,4.89,0,0,0,3.89,1.93,4.61,4.61,0,0,0,3.68-1.78q1.46-1.77,1.46-5.8c0-2.5-.5-4.37-1.51-5.58a4.67,4.67,0,0,0-3.74-1.83,4.86,4.86,0,0,0-3.85,1.79A8,8,0,0,0,414.78,562Z"/><path fill="#005196" d="M435.71,570.65v-6.38l15.82-6.22-15.82-6.15v-6.33l22.67,9.8v5.41Z"/><rect width="29.68" height="29.68" x="460.03" y="356.11" fill="#5481c2"/><path fill="#0f132d" d="M501.94,398.31H473.79V370.15h28.15Zm-26.57-1.58h25v-25h-25Z"/><path fill="#f36e23" d="M789.26,1116.07a13.59,13.59,0,1,1-13.59-13.59A13.58,13.58,0,0,1,789.26,1116.07Z"/><path fill="#0f132d" d="M785,1139.84a14.46,14.46,0,1,1,14.45-14.46A14.47,14.47,0,0,1,785,1139.84Zm0-27.18a12.73,12.73,0,1,0,12.72,12.72A12.74,12.74,0,0,0,785,1112.66Z"/><path fill="#f36e23" d="M1212.89,876.09a13.59,13.59,0,1,1-13.59-13.59A13.58,13.58,0,0,1,1212.89,876.09Z"/><path fill="#0f132d" d="M1208.62,899.87a14.46,14.46,0,1,1,14.45-14.46A14.47,14.47,0,0,1,1208.62,899.87Zm0-27.19a12.73,12.73,0,1,0,12.73,12.73A12.74,12.74,0,0,0,1208.62,872.68Z"/><path fill="#5481c2" d="M1701.43,1297.21a6.62,6.62,0,0,1-6.56-5.81c-.3-2.4-29.84-241-41.26-311.89-10.19-63.35-28.84-67.94-29-68a2.53,2.53,0,0,0,.41.05l1-13.21c1.46.1,9.18,1.18,17.78,12.36,10.27,13.36,18,35.79,23,66.68,11.44,71.13,41,310,41.31,312.36a6.6,6.6,0,0,1-5.76,7.38A5.66,5.66,0,0,1,1701.43,1297.21Z"/><path fill="#5481c2" d="M1447.83,1297.21a6.63,6.63,0,0,0,6.57-5.81c.29-2.4,29.84-241,41.25-311.89,10.19-63.35,28.84-67.94,29-68a2.57,2.57,0,0,1-.42.05l-.94-13.21c-1.46.1-9.18,1.18-17.78,12.36-10.27,13.36-18,35.79-23,66.68-11.45,71.13-41,310-41.32,312.36a6.61,6.61,0,0,0,5.76,7.38A5.66,5.66,0,0,0,1447.83,1297.21Z"/><rect width="208.08" height="12.39" x="1470.69" y="1105.62" fill="#5481c2"/><rect width="208.08" height="12.38" x="1470.69" y="1144.43" fill="#5481c2"/><rect width="199.28" height="35.23" x="1474.99" y="875.52" fill="#5481c2"/><rect width="14.86" height="346.07" x="1663.91" y="564.67" fill="#5481c2"/><path fill="#f1a2c7" d="M1293.3,755.4c1.74-6.19,9.78-19.91,17.87-21.64,7.93-1.69,23.22-4.89,31-3.71,3.09.46-1.9,10.92-3.5,12.91,0,1.73-1,3.35-3.06,3.35-6.7,0-14.06-1-20.73.05-6.07.94-9.51,8.18-14.4,12C1298.08,760.27,1292.83,757.06,1293.3,755.4Z"/><path fill="#f1a2c7" d="M1308.75,771.54c2.09-7.74,8.35-20.6,16.32-23,7.81-2.33,17.43-4.29,25.32-3.76,3.13.22,3.94,8.83,1.85,9-6.7.54-15.93,5.4-22.53,7-6,1.44-8.92,8.91-13.52,13.11C1313.88,776,1308.07,774.05,1308.75,771.54Z"/><path fill="#f1a2c7" d="M1322.68,773.36c-.34-6.94,4.24-21.86,11.84-25.48,7.44-3.54,18.09-2.53,26-3.27a3.57,3.57,0,0,1,3.73,5.06c.36,1.67-2.21,10.45-10,12.43-6.58,1.67-10.1-3.55-16.43-.94-5.76,2.38-4.52,8.13-8.5,13C1327.37,776.59,1322.76,775.08,1322.68,773.36Z"/><path fill="#f1a2c7" d="M1299.06,768.81c0-5.25,6.32-21.35,14-24.6,7.56-3.18,18.1-1.65,26-2,3.14-.14,4,3.42,2.77,5.67a3.11,3.11,0,0,1-2.47,3.86c-6.64,1.28-14.09,1.74-20.51,4-5.84,2.11-8,9.84-12.22,14.53C1304.62,772.66,1299.05,770.54,1299.06,768.81Z"/><path fill="#f1a2c7" d="M1356,729.48c15,2.41,38.5,3.83,38.5,3.83l-2.06,24.17-28-1-6.24-1.21S1349.87,728.5,1356,729.48Z"/><path fill="#f1a2c7" d="M1333.93,730s16.19-3.06,24,.13,6.33,19.56,6.33,19.56l-11.5,1.62-21-3.39.74-14.91Z"/><path fill="#0e112a" d="M1324,764.11s2.14-13.43,10.51-16.23c0,0-13,5.09-14.56,18.48-.3,2.55-5.35,8.29-5.35,8.29s1.94,0,5.27-4.49A56.46,56.46,0,0,0,1324,764.11Z" opacity=".1"/><path fill="#0e112a" d="M1303.33,755.5s6.15-9.57,9.78-11.29,10-2.25,10-2.25-9.39-1.54-12.35,1.78-10.22,14.62-10.22,14.62Z" opacity=".1"/><path fill="#fde568" d="M1324.55,758.6l-3.11-31s45.79-2.84,94-9.26c22-2.87,40.85-8.23,46.47-7.27,18,3.06,33.18,56.34-5,59C1406.49,773.58,1324.55,758.6,1324.55,758.6Z"/><path fill="#fde568" d="M1432.05,740.11c6.65,10.17,16.34,15.79,26.74,16a28.31,28.31,0,0,0,8.82-1c22-5.66,47.32-67.28,58.28-123.59,5.89-30.25-7.68-80.85-15.81-75.59-18.47,11.95-46.94,99.69-64.39,131.56C1434.78,707.34,1427.46,733.19,1432.05,740.11Z"/><path fill="#f1a2c7" d="M1430.92,1070.07l-4.5,42.36s1.83,9.58,9.17,9.29,11.44-14.29,11.44-14.29l4.2-42Z"/><path fill="#fcd503" d="M1447,1107.43l2.54,22.57-69.36-2.09,46.47-21.28h0a19.19,19.19,0,0,0,19.6,1.19Z"/><polygon fill="#fde568" points="1449.31 1136.35 1379.95 1134.27 1380.21 1127.91 1449.57 1130 1449.31 1136.35"/><path fill="#f1a2c7" d="M1331.58,1066l-4.5,42.36s1.83,9.58,9.17,9.29,11.45-14.28,11.45-14.28l4.19-42Z"/><path fill="#fcd503" d="M1347.7,1103.41l2.53,22.56-69.36-2.09,46.47-21.27h0a19.24,19.24,0,0,0,19.6,1.18Z"/><polygon fill="#fde568" points="1349.97 1132.33 1280.61 1130.24 1280.87 1123.88 1350.23 1125.97 1349.97 1132.33"/><path fill="#0e112a" d="M1334.59,866.21c-14.49,20.16-10.67,229.93-10.67,229.93l30.93,1.26,33.29-178.58s104.58.88,118.29-18.92c12.86-18.56,46.89-75.91,46.89-75.91-5.92,0-14.81-31.67-14.81-31.67C1448.9,788.69,1345.59,850.91,1334.59,866.21Z"/><path fill="#0e112a" d="M1391,882.17c-8.25,19.76,29.49,219.64,29.49,219.64l36.13.94L1466,896.86s135.54,19,149.25-.74c12.86-18.56,22.16-74,22.16-74-5.92,0-60.88-28.09-60.88-28.09C1493.64,810.07,1398.24,864.78,1391,882.17Z"/><path fill="#fff" d="M1519.45,811.41c-36,13.22-71.81,27.73-104.93,47.25-8.64,5.74-19.15,11.19-23.77,21-.94,4.81,0,9.72,0,14.58.49,7.67,1.15,15.33,2.24,22.93-.76-7.64-1.08-15.31-1.23-23-.09-3.83-.16-7.66-.15-11.49-.1-3.63,2.75-6.61,5.31-9.21a114.77,114.77,0,0,1,18.53-13.24c33.2-19.14,68.73-33.88,104-48.86Z"/><path fill="#f1a2c7" d="M1516.88,501c.65,1.89,1.26,3.67,1.71,5.33a91.62,91.62,0,0,1,2.63,13.3,100.41,100.41,0,0,1,1,12.2,112.67,112.67,0,0,1-1.3,20.93c33.65,18.34,71.81-3.48,71.81-3.48a113.71,113.71,0,0,1-3.28-16.71,256.81,256.81,0,0,1-2-27.75,2.84,2.84,0,0,1,0-.56,3.46,3.46,0,0,1,0-.4Z"/><path fill="#0e112a" d="M1516.88,501c.65,1.89,1.26,3.67,1.71,5.33a54.73,54.73,0,0,1,2.63,13.3,100.41,100.41,0,0,1,1,12.2c16,7.83,34.33,11.45,47.83,9.12a45.6,45.6,0,0,0,19.4-8.38,256.81,256.81,0,0,1-2-27.75,2.84,2.84,0,0,1,0-.56,3.46,3.46,0,0,1,0-.4Z" opacity=".1"/><path fill="#fcd503" d="M1595.14,540.39s44.34,32,60.74,45.83c0,0-12.37,194.67-10.5,253.2,0,0-137.63-17.95-162.77-49.14,0,0,3.28-80.83,5.34-131.67s8.64-96.75,29.88-109.1C1517.83,549.51,1548.63,571.5,1595.14,540.39Z"/><path fill="#f1a2c7" d="M1394.75,739.08c2.42-6,11.93-18.7,20.17-19.52,8.06-.8,23.61-2.29,31.25-.25,3,.81-3.1,10.65-4.9,12.45-.21,1.71-1.34,3.21-3.42,3-6.66-.76-13.87-2.55-20.61-2.25-6.13.28-10.36,7.08-15.63,10.34C1399,744.47,1394.1,740.68,1394.75,739.08Z"/><path fill="#f1a2c7" d="M1408.32,756.84c2.94-7.46,10.58-19.55,18.77-21,8-1.44,17.79-2.33,25.58-.92,3.08.55,2.93,9.2.84,9.13-6.72-.22-16.44,3.61-23.17,4.45-6.11.77-9.85,7.87-14.89,11.54C1412.93,761.85,1407.37,759.27,1408.32,756.84Z"/><path fill="#f1a2c7" d="M1422,760.2c.43-6.94,6.64-21.26,14.59-24,7.79-2.7,18.26-.52,26.23-.38a3.58,3.58,0,0,1,3.15,5.45c.18,1.69-3.36,10.14-11.32,11.25-6.73.93-9.64-4.65-16.22-2.75-6,1.72-5.39,7.57-9.88,12C1426.26,763.92,1421.85,761.91,1422,760.2Z"/><path fill="#f1a2c7" d="M1399,753.05c.61-5.22,8.65-20.52,16.69-22.9,7.87-2.31,18.17.38,26.09.91,3.14.21,3.61,3.85,2.12,5.94a3.11,3.11,0,0,1-2.87,3.57c-6.74.52-14.2.17-20.84,1.75-6,1.44-9.07,8.89-13.75,13.08C1404.09,757.5,1398.79,754.77,1399,753.05Z"/><path fill="#f1a2c7" d="M1459.92,720.27c14.66,4.05,37.84,8.08,37.84,8.08L1493,752.13,1465.37,748l-6.07-1.88S1454,718.62,1459.92,720.27Z"/><path fill="#f1a2c7" d="M1438,718.33s16.43-1.25,23.85,2.79,4.13,20.14,4.13,20.14l-11.61.34-20.54-5.7,2.39-14.74Z"/><path fill="#0e112a" d="M1424.31,751.15s3.61-13.12,12.24-15c0,0-13.46,3.61-16.51,16.75-.58,2.5-6.24,7.64-6.24,7.64s1.92.23,5.73-3.88A59.14,59.14,0,0,0,1424.31,751.15Z" opacity=".1"/><path fill="#0e112a" d="M1404.71,740.3s7.17-8.83,11-10.15,10.17-1.12,10.17-1.12-9.16-2.57-12.47.41-11.77,13.39-11.77,13.39Z" opacity=".1"/><path fill="#fde568" d="M1638.9,786.07c-13.07,8.95-48.33-22.38-39.66-42.78,14.4-33.86,16.07-63.5,16.07-63.5s8.46-63.4,40-93.83C1688.66,625.14,1676.82,760.1,1638.9,786.07Z"/><path fill="#fde568" d="M1472.92,752.53l1.81-31.1s72.36,2.19,120.94,3.43c22.17.63,41.64-1.69,47,.14,17.31,5.86,23.89,60.87-14.21,57.48C1578.17,778,1472.92,752.53,1472.92,752.53Z"/><path fill="#fff" d="M1596.72,537.91s-28,17.71-64.51,16.3c0,0,5.93,13.39,7.29,22.8C1539.5,577,1587.36,565.58,1596.72,537.91Z"/><path fill="#fff" d="M1518.87,546.76s2.61,4.86,13.34,7.45l-18,15s.52-19,.88-21.67S1518.87,546.76,1518.87,546.76Z"/><path fill="#f1a2c7" d="M1466.63,469.1c4.41,38.33,42.21,65.47,84.42,60.62s72.87-39.87,68.46-78.2-42.2-65.48-84.42-60.62S1462.22,430.76,1466.63,469.1Z"/><path fill="#0e112a" d="M1562.18,430.94S1595,479.58,1621,458.71s2.92-62.9-18.7-88.45-75.07-38.08-69.39-9.89c0,0-18.85-12.06-46.15-5.67s-6.66,30.42-6.66,30.42-36.81-23.39-48.85-.88,28.38,56.05,65.18,51A454.1,454.1,0,0,1,1562.18,430.94Z"/><path fill="#fff" d="M1603.52,446.87c5.15-.59,8.57-2.72,10.16-6.33,7.22-16.4-29.16-58-33.33-62.72a1.85,1.85,0,1,0-2.77,2.46c10.9,12.25,38,46.72,32.71,58.77-1.23,2.81-4.35,4.21-9.53,4.29a1.85,1.85,0,1,0,0,3.7A25.75,25.75,0,0,0,1603.52,446.87Z"/><path fill="#fff" d="M1563.23,390.64h0a1.83,1.83,0,0,0,1.59-2.07c-1.72-13.19-27.49-27.47-28.58-28.06a1.85,1.85,0,0,0-1.79,3.24c7,3.85,25.47,15.89,26.7,25.3A1.86,1.86,0,0,0,1563.23,390.64Z"/><path fill="#fff" d="M1569.06,411.29a1.67,1.67,0,0,0,.74-.25,1.84,1.84,0,0,0,.63-2.54c-24.41-40.6-81-36.63-81.59-36.59a1.85,1.85,0,1,0,.29,3.68c.54,0,54.91-3.8,78.14,34.82A1.83,1.83,0,0,0,1569.06,411.29Z"/><path fill="#fff" d="M1545.22,410.59a1.72,1.72,0,0,0,.8-.31,1.83,1.83,0,0,0,.52-2.56c-11.41-17.15-60.21-21.47-62.27-21.64a1.85,1.85,0,1,0-.32,3.68c.49,0,49.09,4.34,59.51,20A1.88,1.88,0,0,0,1545.22,410.59Z"/><path fill="#fff" d="M1549.31,420.7c1.51-.17,2.47-.3,2.77-.35a1.85,1.85,0,0,0,1.57-2.09,1.79,1.79,0,0,0-2.1-1.57c-.7.1-71.18,9.78-95.64-21A1.85,1.85,0,1,0,1453,398C1476.23,427.21,1535.58,422.28,1549.31,420.7Z"/><path fill="#f1a2c7" d="M1599.77,478.76c1,9,9.71,15.4,19.38,14.29s16.67-9.31,15.63-18.32-9.71-15.4-19.38-14.3S1598.73,469.75,1599.77,478.76Z"/><path fill="#f1a2c7" d="M1451.42,467a14.87,14.87,0,1,0,13.07-16.46A14.87,14.87,0,0,0,1451.42,467Z"/><path fill="url(#a)" d="M1599.26,484.32a17.12,17.12,0,1,1-19-15A17.13,17.13,0,0,1,1599.26,484.32Z"/><path fill="url(#b)" d="M1506.78,468.11a17.12,17.12,0,1,1-19-15A17.12,17.12,0,0,1,1506.78,468.11Z"/><path fill="#f069a7" d="M1536.73,460.5s-9.2,14.68-11.77,22.93a2.14,2.14,0,0,0,1.71,2.77c3.92.68,11.86,1.87,15.12,1.28C1546.21,486.68,1536.73,460.5,1536.73,460.5Z"/><path fill="#0e112a" d="M1568,436.73c-.78-1.48-15.06-2.46-16.15-1.39-.93.91-.82,5.77.07,7,.46.64,15.38-.82,15.53-1.33C1567.78,439.73,1568.34,437.45,1568,436.73Z"/><path fill="#0e112a" d="M1561.22,453.23c-.16,3-1.72,5.09-3.58,4.78s-3.55-3.27-3.45-6.57,1.92-5.57,3.93-4.89S1561.38,450.2,1561.22,453.23Z"/><path fill="#0e112a" d="M1500.37,439.66c.35-1.77,14.14-7.36,15.51-6.6,1.18.65,2.47,5.74,1.89,7.26-.3.79-15.38,4.07-15.67,3.59C1501.39,442.71,1500.2,440.52,1500.37,439.66Z"/><path fill="#0e112a" d="M1514.32,453.65c.22,3.24-.85,5.94-2.47,6.09s-3.3-2.55-3.55-6,1-6.24,2.69-6.12S1514.09,450.42,1514.32,453.65Z"/><path fill="#0e112a" d="M1549.8,503.36s-9.09,3.76-15.32.83c0,0,.92,8,6.15,8.85S1548.18,507.8,1549.8,503.36Z"/><path fill="#fff" d="M1534.48,504.19s.94,2.82,1.64,3.46,8.3,1.28,12.22-.61a25.59,25.59,0,0,0,1.46-3.68S1540.85,506.78,1534.48,504.19Z"/><path fill="#5481c2" d="M1518.2,801.4l-31.08-105.68a7.61,7.61,0,0,0-7.77-5.65l-4.9.37h0l-185.48,14c-5.24.39-8.75,5.87-7.17,11.23l34.58,117.58-.74.3.67,8.86,202.51-15.28,90.44-21-.66-8.87Z"/><path fill="#5481c2" d="M1333.92,321.15h-88.85a7.41,7.41,0,0,0-7.41,7.41v43.33a7.4,7.4,0,0,0,7.41,7.4h33.52l15.51,18.93c.56.68,1.38,1.43,2.18,1.07s.81-1.32.79-2.13a117.35,117.35,0,0,1,.76-17.87h36.09a7.4,7.4,0,0,0,7.41-7.4V328.56A7.41,7.41,0,0,0,1333.92,321.15Z"/><path fill="#fff" d="M1306.54,361.19l18-7.85V349l-18-7.8v5.1l12.58,4.82-12.58,5Z"/><path fill="#fff" d="M1294.66,364.63l-6.52-27.21h-3.79l6.59,27.21Z"/><path fill="#fff" d="M1272.47,361.2v-5.07l-12.6-5,12.6-4.9v-5L1254.41,349v4.31Z"/><polygon fill="#0f132d" points="809.51 593.09 801.75 593.09 801.75 591.37 807.79 591.37 807.79 585.33 809.51 585.33 809.51 593.09"/><path fill="#0f132d" d="M787.81,593.09H773.86v-1.72h13.95Zm-27.89,0H746v-1.72h13.94Zm-27.89,0H718.09v-1.72H732Zm-27.88,0H690.21v-1.72h13.94Zm-27.88,0H662.32v-1.72h13.95Zm-27.89,0h-14v-1.72h14Zm-27.89,0H606.55v-1.72h13.94Z"/><polygon fill="#0f132d" points="592.61 593.09 584.85 593.09 584.85 585.33 586.57 585.33 586.57 591.37 592.61 591.37 592.61 593.09"/><path fill="#0f132d" d="M586.57,571.43h-1.72V557.54h1.72Zm0-27.79h-1.72V529.75h1.72Zm0-27.78h-1.72V502h1.72Zm0-27.8h-1.72V474.17h1.72Zm0-27.78h-1.72v-13.9h1.72Zm0-27.79h-1.72v-13.9h1.72Z"/><polygon fill="#0f132d" points="586.57 404.69 584.85 404.69 584.85 396.93 592.61 396.93 592.61 398.65 586.57 398.65 586.57 404.69"/><path fill="#0f132d" d="M787.81,398.65H773.86v-1.72h13.95Zm-27.89,0H746v-1.72h13.94Zm-27.89,0H718.09v-1.72H732Zm-27.88,0H690.21v-1.72h13.94Zm-27.89,0H662.32v-1.72h13.94Zm-27.88,0h-14v-1.72h14Zm-27.89,0H606.55v-1.72h13.94Z"/><polygon fill="#0f132d" points="809.51 404.69 807.79 404.69 807.79 398.65 801.75 398.65 801.75 396.93 809.51 396.93 809.51 404.69"/><path fill="#0f132d" d="M809.51,571.43h-1.72V557.54h1.72Zm0-27.78h-1.72v-13.9h1.72Zm0-27.79h-1.72V502h1.72Zm0-27.79h-1.72v-13.9h1.72Zm0-27.79h-1.72V446.39h1.72Zm0-27.79h-1.72v-13.9h1.72Z"/><path fill="#0f132d" d="M1181.29,487.14h-13.81v-1.73h13.81Zm-27.61,0h-13.81v-1.73h13.81Zm-27.61,0h-13.81v-1.73h13.81Zm-27.61,0h-13.81v-1.73h13.81Zm-27.61,0H1057v-1.73h13.81Zm-27.61,0h-13.81v-1.73h13.81Zm-27.61,0h-13.81v-1.73h13.81Zm-27.62,0h-13.8v-1.73H988Zm-27.61,0H946.6v-1.73h13.8Zm-27.61,0H919v-1.73h13.8Zm-27.61,0h-13.8v-1.73h13.8Zm-27.61,0h-13.8v-1.73h13.8Zm-27.61,0h-13.8v-1.73H850Zm-18.84-8.77H829.4v-13.8h1.72Zm351-1.4h-1.72V463.16h1.72Zm-351-26.21H829.4V437h1.72Zm351-1.4h-1.72V435.55h1.72Zm-351-26.21H829.4V409.34h1.72Zm351-1.4h-1.72V407.94h1.72Zm-4.52-23.1h-13.8v-1.72h13.8Zm-27.61,0h-13.8v-1.72H1150Zm-27.61,0h-13.8v-1.72h13.8Zm-27.61,0H1081v-1.72h13.8Zm-27.61,0h-13.8v-1.72h13.8Zm-27.61,0h-13.8v-1.72h13.8Zm-27.61,0h-13.8v-1.72H1012Zm-27.61,0h-13.8v-1.72h13.8Zm-27.61,0H943v-1.72h13.8Zm-27.61,0h-13.8v-1.72h13.8Zm-27.61,0H887.72v-1.72h13.81Zm-27.61,0H860.11v-1.72h13.81Zm-27.61,0H832.5v-1.72h13.81Z"/><path fill="#0f132d" d="M1181.29,595.43h-13.81V593.7h13.81Zm-27.61,0h-13.81V593.7h13.81Zm-27.61,0h-13.81V593.7h13.81Zm-27.61,0h-13.81V593.7h13.81Zm-27.61,0H1057V593.7h13.81Zm-27.61,0h-13.81V593.7h13.81Zm-27.61,0h-13.81V593.7h13.81Zm-27.62,0h-13.8V593.7H988Zm-27.61,0H946.6V593.7h13.8Zm-27.61,0H919V593.7h13.8Zm-27.61,0h-13.8V593.7h13.8Zm-27.61,0h-13.8V593.7h13.8Zm-27.61,0h-13.8V593.7H850Zm-18.84-8.77H829.4V572.85h1.72Zm351-1.39h-1.72V571.46h1.72Zm-351-26.22H829.4V545.24h1.72Zm351-1.39h-1.72V543.85h1.72Zm-351-26.23H829.4v-13.8h1.72Zm351-1.38h-1.72V516.24h1.72Zm-4.51-23.1h-13.8v-1.73h13.8ZM1150,507h-13.8v-1.73H1150Zm-27.61,0h-13.8v-1.73h13.8Zm-27.61,0H1081v-1.73h13.81Zm-27.61,0h-13.81v-1.73h13.81Zm-27.61,0h-13.81v-1.73h13.81ZM1012,507H998.17v-1.73H1012Zm-27.61,0H970.56v-1.73h13.81Zm-27.61,0H943v-1.73h13.81Zm-27.61,0H915.34v-1.73h13.81Zm-27.61,0H887.73v-1.73h13.81Zm-27.61,0H860.12v-1.73h13.81Zm-27.61,0H832.51v-1.73h13.81Z"/><path fill="#0f132d" d="M1181.29,747.4h-13.81v-1.73h13V732.4h1.72v13.8h-.86Zm-27.61,0h-13.81v-1.73h13.81Zm-27.61,0h-13.81v-1.73h13.81Zm-27.61,0h-13.81v-1.73h13.81Zm-27.61,0H1057v-1.73h13.81Zm-27.61,0h-13.81v-1.73h13.81Zm-27.61,0h-13.81v-1.73h13.81Zm-27.62,0h-13.8v-1.73H988Zm-27.61,0H946.6v-1.73h13.8Zm-27.61,0H919v-1.73h13.8Zm-27.61,0h-13.8v-1.73h13.8Zm-27.61,0h-13.8v-1.73h13.8Zm-27.61,0h-13.8v-1.73H850Zm-27.61,0h-13.8v-1.73h13.8Zm-27.61,0h-13.8v-1.73h13.8Zm-27.61,0h-13.8v-1.73h13.8Zm-27.61,0h-13.8v-1.73h13.8Zm-27.61,0h-13.8v-1.73h13.8Zm-27.61,0H670.49v-1.73H684.3Zm-27.61,0H642.88v-1.73h13.81Zm-27.61,0H615.27v-1.73h13.81Zm-27.61,0H587.66v-1.73h13.81ZM584,737.22h-1.73V723.41H584Zm598.11-18.63h-1.72v-13.8h1.72Zm-598.11-9h-1.73V695.8H584ZM1182.15,691h-1.72v-13.8h1.72ZM584,682h-1.73V668.19H584Zm598.11-18.63h-1.72v-13.8h1.72Zm-598.11-9h-1.73V640.58H584Zm598.11-18.63h-1.72V622h1.72Zm-598.11-9h-1.73v-7.94h7.61v1.73H584Zm585.7-6.21h-13.81v-1.73h13.81Zm-27.61,0h-13.81v-1.73h13.81Zm-27.61,0h-13.81v-1.73h13.81Zm-27.61,0H1073.1v-1.73h13.81Zm-27.61,0h-13.81v-1.73h13.81Zm-27.61,0h-13.81v-1.73h13.81Zm-27.62,0h-13.8v-1.73h13.8Zm-27.61,0h-13.8v-1.73h13.8Zm-27.61,0h-13.8v-1.73h13.8Zm-27.61,0h-13.8v-1.73h13.8Zm-27.61,0h-13.8v-1.73h13.8Zm-27.61,0h-13.8v-1.73H866Zm-27.61,0h-13.8v-1.73h13.8Zm-27.61,0H797v-1.73h13.8Zm-27.61,0h-13.8v-1.73h13.8Zm-27.61,0h-13.8v-1.73h13.8Zm-27.61,0H714.16v-1.73H728Zm-27.61,0H686.55v-1.73h13.81Zm-27.61,0H658.94v-1.73h13.81Zm-27.61,0H631.33v-1.73h13.81Zm-27.61,0H603.72v-1.73h13.81Z"/><rect width="381.78" height="230.04" x="651.67" y="280.47" fill="#efebe8"/><rect width="4.7" height="207.33" x="671.81" y="291.82" fill="#005196"/><rect width="81.02" height="4.53" x="695.46" y="304.7" fill="#005196"/><rect width="58.65" height="4.52" x="751.37" y="319.45" fill="#005196"/><rect width="34.79" height="4.52" x="817.54" y="319.45" fill="#005196"/><rect width="46.74" height="4.52" x="751.37" y="334.19" fill="#005196"/><rect width="27.87" height="4.52" x="804.96" y="334.19" fill="#005196"/><rect width="27.87" height="4.52" x="846.22" y="334.19" fill="#005196"/><rect width="27.87" height="4.52" x="863.08" y="319.45" fill="#fcd503"/><rect width="27.87" height="4.52" x="875.79" y="348.94" fill="#005196"/><rect width="63.94" height="4.52" x="751.37" y="348.94" fill="#fcd503"/><rect width="48.38" height="4.52" x="821.82" y="348.94" fill="#005196"/><rect width="34.79" height="4.53" x="804.37" y="393.18" fill="#005196"/><rect width="27.87" height="4.53" x="802.98" y="407.93" fill="#fcd503"/><rect width="41.42" height="4.53" x="844.25" y="407.93" fill="#005196"/><rect width="27.87" height="4.53" x="850.54" y="393.22" fill="#005196"/><rect width="27.87" height="4.53" x="873.81" y="422.67" fill="#fcd503"/><rect width="48.38" height="4.53" x="819.84" y="422.67" fill="#005196"/><rect width="27.87" height="4.53" x="892.37" y="437.42" fill="#005196"/><rect width="48.38" height="4.53" x="838.4" y="437.42" fill="#005196"/><rect width="34.79" height="4.53" x="893.76" y="393.22" fill="#005196"/><rect width="27.87" height="4.53" x="892.37" y="407.97" fill="#005196"/><rect width="50.67" height="4.53" x="933.63" y="407.97" fill="#005196"/><rect width="48.53" height="4.52" x="939.92" y="393.27" fill="#005196"/><rect width="27.87" height="4.53" x="963.2" y="422.72" fill="#005196"/><rect width="48.38" height="4.53" x="909.23" y="422.72" fill="#005196"/><rect width="27.87" height="4.53" x="981.75" y="437.46" fill="#005196"/><rect width="48.38" height="4.53" x="927.78" y="437.46" fill="#005196"/><rect width="27.87" height="4.53" x="819.24" y="466.96" fill="#005196"/><rect width="48.38" height="4.53" x="765.27" y="466.96" fill="#fcd503"/><rect width="27.87" height="4.52" x="837.8" y="481.71" fill="#005196"/><rect width="73.52" height="4.52" x="758.69" y="481.71" fill="#005196"/><rect width="27.87" height="4.53" x="908.62" y="467" fill="#005196"/><rect width="48.38" height="4.53" x="854.65" y="467" fill="#005196"/><rect width="27.87" height="4.53" x="927.18" y="481.75" fill="#fcd503"/><rect width="48.38" height="4.53" x="873.21" y="481.75" fill="#005196"/><rect width="34.79" height="4.53" x="901.73" y="319.53" fill="#005196"/><rect width="27.87" height="4.53" x="900.34" y="334.28" fill="#005196"/><rect width="50.67" height="4.53" x="941.6" y="334.28" fill="#fcd503"/><rect width="48.53" height="4.53" x="947.89" y="319.57" fill="#005196"/><rect width="27.87" height="4.53" x="971.17" y="349.02" fill="#005196"/><rect width="48.38" height="4.53" x="917.2" y="349.02" fill="#005196"/><rect width="43.4" height="4.53" x="695.46" y="363.68" fill="#005196"/><rect width="81.02" height="4.53" x="695.46" y="378.43" fill="#005196"/><rect width="44.9" height="4.53" x="751.37" y="393.18" fill="#fcd503"/><rect width="24.1" height="4.53" x="751.37" y="407.93" fill="#005196"/><rect width="61" height="4.53" x="751.37" y="422.67" fill="#005196"/><rect width="81.02" height="4.53" x="751.37" y="437.42" fill="#005196"/><rect width="44.36" height="4.53" x="695.46" y="452.17" fill="#005196"/><rect width="60.01" height="4.53" x="695.46" y="466.92" fill="#005196"/><rect width="55.91" height="4.53" x="695.46" y="481.66" fill="#fcd503"/><rect width="218.11" height="171.51" x="1113.25" y="517.26" fill="#005196"/><rect width="17.8" height="13.79" x="1124.49" y="530.79" fill="#fff"/><rect width="17.8" height="13.79" x="1124.49" y="552.99" fill="#fff"/><rect width="17.8" height="13.79" x="1124.49" y="575.18" fill="#fff"/><rect width="17.8" height="13.79" x="1124.49" y="597.37" fill="#fff"/><rect width="17.8" height="13.79" x="1124.49" y="619.56" fill="#fff"/><rect width="17.8" height="13.79" x="1124.49" y="641.76" fill="#fff"/><rect width="17.8" height="13.79" x="1124.49" y="663.95" fill="#fff"/><rect width="1.73" height="160.69" x="1153.97" y="523.78" fill="#fff"/><rect width="1.72" height="134.53" x="1162.61" y="536.56" fill="#fff"/><rect width="1.73" height="108.08" x="1171.88" y="549.35" fill="#fff"/><rect width="69.59" height="4.51" x="1162.61" y="523.78" fill="#fff"/><rect width="69.59" height="4.52" x="1171.88" y="536.56" fill="#fff"/><rect width="69.59" height="4.52" x="1181.29" y="549.35" fill="#fff"/><rect width="69.59" height="4.52" x="1181.29" y="562.14" fill="#fff"/><rect width="69.59" height="4.52" x="1181.29" y="574.93" fill="#fff"/><rect width="69.59" height="4.52" x="1181.29" y="642.63" fill="#fff"/><rect width="69.59" height="4.51" x="1181.29" y="587.72" fill="#fff"/><rect width="69.59" height="4.52" x="1181.29" y="600.51" fill="#fff"/><rect width="69.59" height="4.52" x="1221.72" y="628.84" fill="#fff"/><rect width="69.59" height="4.51" x="1162.61" y="679.96" fill="#fff"/><rect width="69.59" height="4.51" x="1171.88" y="666.33" fill="#fff"/><rect width="29.15" height="4.51" x="1245.55" y="523.78" fill="#fff"/><rect width="29.15" height="4.51" x="1256.83" y="587.72" fill="#fff"/><rect width="29.15" height="4.52" x="1265.04" y="642.63" fill="#fff"/><rect width="56.42" height="4.52" x="1256.83" y="574.93" fill="#fff"/><rect width="56.42" height="4.52" x="1256.83" y="562.14" fill="#fff"/><rect width="56.42" height="4.52" x="1256.52" y="549.35" fill="#fff"/><rect width="29.15" height="4.52" x="1181.29" y="628.84" fill="#fff"/><rect width="29.15" height="4.52" x="1181.29" y="654.48" fill="#fff"/><rect width="29.15" height="4.51" x="1250.47" y="666.33" fill="#fff"/><rect width="46.2" height="4.52" x="1248.3" y="536.56" fill="#fff"/><rect width="46.2" height="4.52" x="1256.52" y="600.51" fill="#fff"/><rect width="46.2" height="4.52" x="1227.77" y="654.48" fill="#fff"/><rect width="46.2" height="4.52" x="1237.02" y="615.05" fill="#fff"/><rect width="46.2" height="4.52" x="1181.29" y="615.05" fill="#fff"/><rect width="40.25" height="4.51" x="1282.6" y="523.78" fill="#fff"/><path fill="#efebe8" d="M881.77,830.68H671.18a11.63,11.63,0,0,1-11.63-11.63V693.73H893.39V819.05A11.62,11.62,0,0,1,881.77,830.68Z"/><path fill="#0f132d" d="M893.39,693.73H659.55v-24a11.63,11.63,0,0,1,11.63-11.63H881.77a11.63,11.63,0,0,1,11.62,11.63Z"/><path fill="#fff" d="M817.15,675.76a7.77,7.77,0,1,1-7.77-7.77A7.77,7.77,0,0,1,817.15,675.76Z"/><path fill="#fff" d="M845.8,675.76A7.77,7.77,0,1,1,838,668,7.77,7.77,0,0,1,845.8,675.76Z"/><path fill="#f36e23" d="M874.45,675.76a7.77,7.77,0,1,1-7.77-7.77A7.77,7.77,0,0,1,874.45,675.76Z"/><rect width="144.41" height="1.11" x="736.44" y="737.83" fill="#0f132d"/><rect width="144.41" height="1.11" x="736.44" y="789.3" fill="#0f132d"/><rect width="144.41" height="1.11" x="736.44" y="776.24" fill="#0f132d"/><rect width="144.41" height="1.11" x="736.44" y="725.16" fill="#0f132d"/><rect width="31.66" height="31.66" x="673.83" y="714.87" fill="#fcd503"/><path fill="#0f132d" d="M711.9,754.62H679.42V722.14H711.9Zm-31.66-.82h30.84V723H680.24Z"/><path fill="#0f132d" d="M724.13,802.67H691.65v-32.5h32.48Zm-31.66-.83h30.84V771H692.47Z"/><rect width="31.66" height="31.66" x="686.78" y="764.77" fill="#5481c2"/><path fill="#fcd503" d="M416,1214.66h31.16c66.15,0,120.27-54.12,120.27-120.26V992.21c0-66.15,1.87-120.27-120.27-120.27H416c-117.45-4.37-120.26,54.12-120.26,120.27V1094.4C295.74,1160.54,349.86,1214.66,416,1214.66Z"/><path fill="#0e112a" d="M547.64,1220.73c13.72-.47,33.79,8.19,40,9.66,3.07.72,41.16,13.65,35.78,37.74-5.59,25.08-10.5,21.39-28.36,22.56s-20.49-.33-40.27-5.27c-18-4.48-22-6-26.32-7.28a.77.77,0,0,1-.61-.79l5.91-57.28a.85.85,0,0,1,1-.64Z"/><path fill="#efebe8" d="M524.5,1212.77c.14,0,19.82,7.28,25.37,8.16,3.13.5,41.16,13.65,35.78,37.75-5.59,25.08-10.49,21.39-28.36,22.56s-20.49-.33-40.27-5.27c-18-4.48-22-6-26.32-7.28a.78.78,0,0,1-.61-.79l5.91-57.28a.86.86,0,0,1,1-.65Z"/><path fill="#0e112a" d="M328.91,1213.48c-13.69-.91-34,7.09-40.25,8.35-3.1.63-41.58,12.3-37,36.56,4.77,25.24,9.79,21.71,27.6,23.47s20.5.34,40.43-3.94c18.1-3.89,22.16-5.26,26.54-6.43a.78.78,0,0,0,.64-.77l-4-57.44a.86.86,0,0,0-1-.67Z"/><path fill="#efebe8" d="M352.3,1206.29c-.14,0-20.05,6.62-25.63,7.32-3.14.4-41.58,12.31-37,36.56,4.77,25.25,9.8,21.72,27.61,23.48s20.5.34,40.43-4c18.1-3.89,22.16-5.25,26.54-6.42a.78.78,0,0,0,.64-.77l-4-57.44a.85.85,0,0,0-1-.68Z"/><path fill="#005196" d="M648.39,1137.92c13.13,48.81-57.83,68.47-145.38,92.71s-158.88,44-171.65-4.9c-12.85-49.24,57.83-68.47,145.38-92.72S635.25,1089.11,648.39,1137.92Z"/><path fill="#5481c2" d="M215.51,1145.91c-14.51,45.91,56.33,66.19,143.72,91.2s158.6,45.38,172.74-.64c14.23-46.33-56.34-66.19-143.73-91.19S230,1100,215.51,1145.91Z"/><path fill="#0e112a" d="M275,951.58H585.23a11.51,11.51,0,0,1,11.43,12.75l-17.52,160.21a11.5,11.5,0,0,1-11.43,10.25H292.93a11.49,11.49,0,0,1-11.42-10.22l-18-160.2A11.5,11.5,0,0,1,275,951.58Z"/><path fill="#f1a2c7" d="M476.49,891.79c-.91,8.47-5,14.67-14,17.09-21.17,5.75-58.38,11.12-65.57-8.69a33.64,33.64,0,0,1-1.66-9.15c-.68-13.16,3.25-32.3,7.49-49.61,3.48-14.45,7.18-27.46,8.69-34.94,3.86-18.68,54.45-9.23,54.45-9.23s-10.51,24,.53,52a16.4,16.4,0,0,1,.76,1.74C473.24,866.16,477.55,880.83,476.49,891.79Z"/><path fill="#0e112a" d="M476.49,891.79c-25.64,7.41-54.37,6.51-81.22-.75-.68-13.16,3.25-32.3,7.49-49.61,3.48-14.45,7.18-27.46,8.69-34.94,3.86-18.68,54.45-9.23,54.45-9.23s-10.51,24,.53,52a16.4,16.4,0,0,1,.76,1.74C473.24,866.16,477.55,880.83,476.49,891.79Z" opacity=".1"/><path fill="#f1a2c7" d="M462.54,951.58s-1.19,19.62,14.95,21.95,36.1-21.95,36.1-21.95a51.36,51.36,0,0,0-51.05,0Z"/><path fill="#f1a2c7" d="M272.37,1043.19s16.09,9.71,20.75,28.68-14.39,27.93-14.39,27.93-9.57-16-9.57-28.31S272.37,1043.19,272.37,1043.19Z"/><path fill="#0e112a" d="M349.18,793.36s-46.6-35.59-82.77,3.16S240.92,903.35,299.67,895,373,823.25,373,823.25Z"/><path fill="#0e112a" d="M540.94,798.87c-8.67,21.45-24.61,33-40.48,38.9-2.33.9-4.71,1.69-7,2.33a104.64,104.64,0,0,1-24.67,3.79c-8.19.23-13.61-.61-13.55-.95,0-.56,8.31-22.53,17.11-45.94,5-13.14,10.2-26.75,14.22-37.29,4.18-11.11,7.1-18.74,7.1-18.74a92.59,92.59,0,0,1,22.91,5.36C534.17,753.11,553.48,767.64,540.94,798.87Z"/><path fill="#f36e23" d="M360.06,782.59c-19.12-2.67-22.74,34.45-10.7,44.43s34,9.19,32.14-10.23S374.18,784.56,360.06,782.59Z"/><path fill="#f1a2c7" d="M496.82,832.48A84.05,84.05,0,0,1,486.14,852,73.07,73.07,0,0,1,432,881.11c-.14.12-.22.09-.26,0a62.7,62.7,0,0,1-21.28-2.61,67.17,67.17,0,0,1-30.77-19.6,72.94,72.94,0,0,1-12.32-19.53,2,2,0,0,1-.29-.58c-.77-1.81-1.42-3.66-2-5.48a73.79,73.79,0,0,1-3.6-24.49A71.31,71.31,0,0,1,363,793.85c.47-2.1,1-4.26,1.62-6.36.4-1.12.73-2.26,1.13-3.37l1.26-3.48a77.33,77.33,0,0,1,11-19,39.34,39.34,0,0,1,3-3.56A71.94,71.94,0,0,1,427,734a34.7,34.7,0,0,1,4.32-.2,63.79,63.79,0,0,1,21.47,2.61,62.48,62.48,0,0,1,13.6,5.84,43.94,43.94,0,0,1,4.19,2.59,66,66,0,0,1,15.94,14.87,71.48,71.48,0,0,1,10.92,20.19,74.92,74.92,0,0,1,2.38,42c-.36,1.86-.8,3.68-1.36,5.56C498,829.15,497.46,830.84,496.82,832.48Z"/><path fill="#0e112a" d="M513.91,698.72c12.66,27.75,7.62,93.37-70.26,106.89s-108.07-31-99.26-49.76,29.84-51.82,71.69-64.59C456.39,679,505.4,680.08,513.91,698.72Z"/><path fill="#fff" d="M292.35,868.92c1.22.37,2.48.7,3.77,1,31.2,7,43.64-31.23,43.76-31.62a2.09,2.09,0,0,0-1.37-2.63,2.14,2.14,0,0,0-2.64,1.36c-.46,1.43-11.41,34.89-38.83,28.77-13.53-3-23.35-10.8-26.87-21.34-2.59-7.74-1.26-16,3.48-21.56,10.59-12.41,33.23-14.4,33.46-14.42a2.11,2.11,0,0,0-.34-4.2c-1,.08-24.59,2.14-36.33,15.89-5.68,6.67-7.32,16.49-4.27,25.63C269.83,856.73,279.27,865,292.35,868.92Z"/><path fill="#fff" d="M296.3,852.12c8.15,2.44,20.5-7.64,21.91-8.82a2.1,2.1,0,0,0-2.7-3.23c-4.73,3.95-13.86,9.6-18.27,7.93-.6-.23-2.41-.91-3-5.13s0-7.45,1.94-9.29c3.35-3.18,9.79-2,9.85-2a2.1,2.1,0,1,0,.84-4.12c-.35-.07-8.62-1.7-13.59,3-3,2.84-4.08,7.21-3.21,13,.67,4.42,2.59,7.26,5.72,8.43Z"/><path fill="#fff" d="M506.29,828.14a2.14,2.14,0,0,0,1.95-.39c30.84-25.35,6.87-58,6.62-58.28a2.11,2.11,0,0,0-3.37,2.53c.91,1.21,21.77,29.73-5.93,52.49a2.11,2.11,0,0,0-.29,3A2.14,2.14,0,0,0,506.29,828.14Z"/><path fill="#fff" d="M397.94,786.58c7.62,2.27,25.38,4.17,53.48-12.31,10.42-6.12,16.67-14.25,18.61-24.19,3.93-20.26-11.49-40.56-12.14-41.42a2.11,2.11,0,0,0-3.34,2.57c.15.2,14.92,19.69,11.34,38.06-1.7,8.7-7.28,15.88-16.6,21.34-35.44,20.79-53.26,10.71-53.43,10.6a2.11,2.11,0,0,0-2.19,3.6A19.15,19.15,0,0,0,397.94,786.58Z"/><path fill="#fff" d="M377.66,761.59c6.42,1.91,18.7,3.72,36.41-1.65a22.1,22.1,0,0,0,13.79-11.38c7.9-15.43-.06-39.15-.4-40.16a2.1,2.1,0,0,0-4,1.36c.07.23,7.72,23.06.63,36.89a17.84,17.84,0,0,1-11.27,9.26c-24.67,7.49-38.09.05-38.22,0a2.13,2.13,0,0,0-2.88.77,2.1,2.1,0,0,0,.76,2.87A24.7,24.7,0,0,0,377.66,761.59Z"/><path fill="#0e112a" d="M364.68,787.48a76.54,76.54,0,0,0,2.4,51.26l.42.41,21.83-51.85-22.26-6.64C366.17,782.87,365.38,785.14,364.68,787.48Z"/><path fill="#f1a2c7" d="M369,804.11c-3.14,10.53,2.33,21.47,12.21,24.42s20.46-3.19,23.6-13.74-2.32-21.47-12.21-24.42S372.13,793.57,369,804.11Z"/><path fill="url(#c)" d="M496.82,832.48A84.05,84.05,0,0,1,486.14,852a16.48,16.48,0,0,1-9.23-15.5,14.14,14.14,0,0,1,.32-2.8A16.67,16.67,0,0,1,497,821a12.41,12.41,0,0,1,2.9.92c-.36,1.86-.8,3.68-1.36,5.56C498,829.15,497.46,830.84,496.82,832.48Z"/><path fill="#f069a7" d="M458.7,819.42s4.19,15.91,4.19,24.12a2,2,0,0,1-2.34,2c-3.75-.49-11.28-1.65-14.07-3.12C442.7,840.47,458.7,819.42,458.7,819.42Z"/><path fill="url(#d)" d="M398.54,830.5A16.25,16.25,0,1,0,417.83,818,16.24,16.24,0,0,0,398.54,830.5Z"/><path fill="#0e112a" d="M474.89,805.22c1.59-3.22,4.14-5.21,5.78-4.43s1.72,4.28,0,7.77-4.44,5.41-6,4.33S473.28,808.44,474.89,805.22Z"/><path fill="#0e112a" d="M485.93,805.28s-5.49-4.5-9.9-3.61a3.8,3.8,0,0,1,4.31-1.83C483.48,800.49,485.93,805.28,485.93,805.28Z"/><path fill="#0e112a" d="M440.12,807.73c1.67-2.51,4.12-3.56,5.59-2.33s1.42,4.67-.37,7.51-4.54,3.88-5.94,2.25S438.42,810.3,440.12,807.73Z"/><path fill="#0e112a" d="M439.51,806.07s5.44-1.06,9.21,1.86a4.54,4.54,0,0,0-3.4-3.69C442.39,803.33,439.51,806.07,439.51,806.07Z"/><path fill="#0e112a" d="M452.06,858.74s-7.21,1.54-10.08-2.6c0,0-4.28,6.8-1.06,8.37C445.86,866.93,449.36,862.56,452.06,858.74Z"/><path fill="#fff" d="M442,856.14s-1,2.31-.81,3.07,5.31,3.32,8.51,2.4a19.37,19.37,0,0,0,2.38-2.87S445.07,860,442,856.14Z"/></svg>